<?xml version="1.0" encoding="UTF-8"?>
<svg version="1.1" xmlns="http://www.w3.org/2000/svg" width="1024" height="1024">
<path d="M0 0 C337.92 0 675.84 0 1024 0 C1024 337.92 1024 675.84 1024 1024 C686.08 1024 348.16 1024 0 1024 C0 686.08 0 348.16 0 0 Z " fill="#000000" transform="translate(0,0)"/>
<path d="M0 0 C20.59284872 -0.04675056 41.18568867 -0.08200384 61.77857971 -0.10362434 C71.34052303 -0.11393059 80.90243334 -0.12797847 90.46435547 -0.15087891 C98.79992126 -0.17083272 107.13546315 -0.18372118 115.47105217 -0.18817699 C119.88340083 -0.19078099 124.2956811 -0.19688798 128.70800781 -0.21146011 C132.86446693 -0.22507548 137.02082974 -0.22921466 141.17730904 -0.22621536 C142.69943325 -0.22676376 144.22156082 -0.2307176 145.7436657 -0.23841095 C158.08641332 -0.29771516 169.26514767 0.4509196 178.75 9.1875 C185.1031774 16.10766577 186.59898791 22.84729881 186.47070312 32.11694336 C186.03618349 41.91790345 181.9396952 48.28572413 175 55 C172 57 172 57 169 57 C172.11195181 62.72690885 175.71231775 67.93410173 179.5625 73.1875 C180.13935547 73.98091797 180.71621094 74.77433594 181.31054688 75.59179688 C184.4412584 79.9045468 184.4412584 79.9045468 187.68725586 84.13012695 C189 86 189 86 189 88 C166.9739803 90.3700882 166.9739803 90.3700882 160.80175781 86.68896484 C156.8065457 82.81881436 154.38988182 77.96196874 152 73 C149.09562259 67.53914669 149.09562259 67.53914669 145 63 C140.44823648 61.86339945 136.75609882 61.90193611 132 62 C132 70.58 132 79.16 132 88 C124.08 88 116.16 88 108 88 C108 68.53 108 49.06 108 29 C115.92 29 123.84 29 132 29 C132 33.62 132 38.24 132 43 C135.7302876 42.91296996 139.45819419 42.80606821 143.1875 42.6875 C144.24259766 42.66494141 145.29769531 42.64238281 146.38476562 42.61914062 C147.40634766 42.58369141 148.42792969 42.54824219 149.48046875 42.51171875 C150.41785889 42.48553467 151.35524902 42.45935059 152.32104492 42.43237305 C156.11744548 41.8196486 158.98691768 40.35077643 161.3125 37.25 C162.31199111 33.9789382 162.3581657 31.40257412 162 28 C159.57196918 23.95328197 157.44894564 22.37047632 153 21 C150.238543 20.79506 147.57462352 20.6890205 144.81323242 20.68115234 C144.00295593 20.67110672 143.19267944 20.6610611 142.35784912 20.65071106 C139.69039594 20.61992007 137.02304296 20.60285534 134.35546875 20.5859375 C132.50172567 20.56722256 130.64799108 20.5476489 128.79426575 20.5272522 C123.9232382 20.47595942 119.05218305 20.43631839 114.18103027 20.39910889 C109.20720607 20.35905138 104.23349645 20.30796699 99.25976562 20.2578125 C89.50659094 20.16108699 79.75335151 20.07667136 70 20 C70.02886795 20.82304123 70.0577359 21.64608246 70.08747864 22.49406433 C70.34947271 30.30365443 70.54661787 38.11174173 70.67355824 45.92473888 C70.74102451 49.94060426 70.83226875 53.95280001 70.98071289 57.96655273 C72.04610437 87.53240442 72.04610437 87.53240442 65.51725769 94.81697083 C62.8307782 97.22288238 60.0654579 99.09053198 57 101 C55.43000376 102.38520481 53.88022576 103.79467325 52.375 105.25 C50.09736991 107.25908855 48.9568611 108.01437963 46 109 C46 79.63 46 50.26 46 20 C36.1 20 26.2 20 16 20 C13.03 16.37 10.06 12.74 7 9 C4.12055266 5.71879376 4.12055266 5.71879376 1.21484375 2.4609375 C0 1 0 1 0 0 Z " fill="#F8F8F8" transform="translate(117,454)"/>
<path d="M0 0 C8.74905628 8.05991828 14.52234978 18.34131938 15.18359375 30.328125 C15.3031378 36.93820785 15.09157447 42.72527659 13 49 C12.74347656 49.78761719 12.48695313 50.57523438 12.22265625 51.38671875 C8.39507483 62.11380317 1.85572272 69.36188225 -8 75 C-20.33098745 80.82050914 -34.40133872 82.22043721 -47.765625 79.12890625 C-50.70240485 77.95650068 -53.30224358 76.64608867 -56 75 C-56.88816406 74.46890625 -57.77632812 73.9378125 -58.69140625 73.390625 C-69.69429995 66.24120376 -76.34303276 56.90957009 -79.3125 44.0625 C-81.30882146 31.79384483 -79.94363353 20.91226325 -73.25 10.25 C-65.73472315 -0.05560241 -55.09383554 -8.34413355 -42.23046875 -10.78515625 C-26.61224976 -12.28953811 -12.48199094 -9.99349274 0 0 Z " fill="#FAFAF9" transform="translate(688,463)"/>
<path d="M0 0 C7.21875 -0.04125 14.4375 -0.0825 21.875 -0.125 C24.13327637 -0.14320801 26.39155273 -0.16141602 28.71826172 -0.18017578 C30.53873457 -0.18602532 32.35921008 -0.19111978 34.1796875 -0.1953125 C35.10015869 -0.20554443 36.02062988 -0.21577637 36.96899414 -0.22631836 C50.82530725 -0.22998891 63.84904043 3.15997072 74 13 C82.50356937 22.57595556 86.82294717 32.81828797 86.390625 45.6953125 C85.71469972 51.41364038 84.04929498 56.63755912 82 62 C81.72285156 62.75152344 81.44570313 63.50304687 81.16015625 64.27734375 C76.60011046 74.88943188 67.28310297 80.76578113 57 85 C42 88 42 88 0 88 C0 58.96 0 29.92 0 0 Z " fill="#FBFBFB" transform="translate(512,454)"/>
<path d="M0 0 C12.2203125 -0.12375 12.2203125 -0.12375 24.6875 -0.25 C27.23170654 -0.28641602 29.77591309 -0.32283203 32.3972168 -0.36035156 C60.55773984 -0.59870952 60.55773984 -0.59870952 71.19140625 9.83984375 C77.99341559 17.96405793 78.78856245 26.75964045 78 37 C75.95935703 45.32892864 71.9451431 51.27977271 64.6875 55.875 C63.46447886 56.59389228 62.23736741 57.30609172 61 58 C62.33636734 60.8154004 63.83791349 63.32579731 65.64453125 65.86328125 C66.41313477 66.94706055 66.41313477 66.94706055 67.19726562 68.05273438 C67.73029297 68.79845703 68.26332031 69.54417969 68.8125 70.3125 C69.33392578 71.04662109 69.85535156 71.78074219 70.39257812 72.53710938 C73.42114405 76.80360689 73.42114405 76.80360689 76.50146484 81.03271484 C80 85.79402758 80 85.79402758 80 88 C56.88030472 89.78593152 56.88030472 89.78593152 50.84375 86.04296875 C48.82674979 83.12430107 47.42511363 80.24880786 46 77 C44.5529091 74.37710514 42.97578121 71.86574272 41.3125 69.375 C40.90596191 68.76366211 40.49942383 68.15232422 40.08056641 67.52246094 C37.76402793 64.37979415 36.22288382 63.07009856 32.47265625 61.890625 C28.49652449 61.51445574 28.49652449 61.51445574 23 62 C23 70.58 23 79.16 23 88 C15.41 88 7.82 88 0 88 C0 58.96 0 29.92 0 0 Z " fill="#FAFAFA" transform="translate(719,454)"/>
<path d="M0 0 C7.26 0 14.52 0 22 0 C30.02870813 8.02870813 30.02870813 8.02870813 32.19140625 11.62890625 C34.70348679 15.61857922 37.50369429 19.10270662 40.625 22.625 C47.38328713 30.50781673 53.77089162 38.69452216 60 47 C60.33 31.49 60.66 15.98 61 0 C68.59 0 76.18 0 84 0 C84 28.71 84 57.42 84 87 C77.07 87 70.14 87 63 87 C56.15693431 80.15693431 56.15693431 80.15693431 54.38671875 76.98046875 C52.1113814 73.10892932 49.50734826 69.67459423 46.6875 66.1875 C45.78461097 65.03818857 44.88228126 63.88843757 43.98046875 62.73828125 C39.95571884 57.65952846 35.82003777 52.67119865 31.68237305 47.68432617 C31.11687744 47.00217041 30.55138184 46.32001465 29.96875 45.6171875 C29.46794922 45.01503418 28.96714844 44.41288086 28.45117188 43.79248047 C26.91896076 41.89990072 25.46103745 39.94804994 24 38 C23.67 54.5 23.34 71 23 88 C15.41 88 7.82 88 0 88 C0 58.96 0 29.92 0 0 Z " fill="#FBFBFB" transform="translate(407,454)"/>
<path d="M0 0 C23.76 0 47.52 0 72 0 C72 6.6 72 13.2 72 20 C55.83 20 39.66 20 23 20 C23 24.62 23 29.24 23 34 C37.52 34 52.04 34 67 34 C67 40.27 67 46.54 67 53 C52.48 53 37.96 53 23 53 C23 57.95 23 62.9 23 68 C39.17 68 55.34 68 72 68 C72 74.6 72 81.2 72 88 C48.24 88 24.48 88 0 88 C0 58.96 0 29.92 0 0 Z " fill="#F9F9F9" transform="translate(319,454)"/>
<path d="M0 0 C7.26 0 14.52 0 22 0 C32.71610238 20.99481283 42.50977133 42.45672238 52.31661987 63.88796997 C52.97464757 65.32479047 53.63422678 66.76090153 54.29544067 68.19625854 C55.21890491 70.20280722 56.13571443 72.21226673 57.05078125 74.22265625 C57.57325439 75.36484619 58.09572754 76.50703613 58.6340332 77.68383789 C60 81 60 81 62 88 C53.75 88 45.5 88 37 88 C34.69 82.72 32.38 77.44 30 72 C16.14 71.505 16.14 71.505 2 71 C3.58191715 63.88137283 5.23171434 58.5516094 8 52 C12.62 52 17.24 52 22 52 C21.278125 50.29070312 20.55625 48.58140625 19.8125 46.8203125 C18.874814 44.58861981 17.93732411 42.35684471 17 40.125 C16.52304687 38.99707031 16.04609375 37.86914062 15.5546875 36.70703125 C15.10351562 35.63066406 14.65234375 34.55429687 14.1875 33.4453125 C13.76855469 32.45031738 13.34960938 31.45532227 12.91796875 30.43017578 C12 28 12 28 12 26 C11.34 26 10.68 26 10 26 C9.74191055 26.92088913 9.74191055 26.92088913 9.47860718 27.86038208 C7.74331428 33.86828992 5.65022163 39.57106614 3.1640625 45.3046875 C2.80283295 46.14991974 2.44160339 46.99515198 2.06942749 47.86599731 C0.92631766 50.5378559 -0.22408872 53.206494 -1.375 55.875 C-2.13852912 57.65472994 -2.90155369 59.43467643 -3.6640625 61.21484375 C-4.77089759 63.7986586 -5.87808755 66.38231225 -6.98748779 68.96502686 C-9.70402866 75.29167238 -12.36893482 81.63722485 -15 88 C-22.92 88 -30.84 88 -39 88 C-38.12083751 83.60418756 -36.84219808 80.11487227 -34.96484375 76.12109375 C-34.65441635 75.44869659 -34.34398895 74.77629944 -34.02415466 74.08352661 C-33.35165796 72.62781761 -32.67683388 71.17318201 -31.99993896 69.71951294 C-30.17753352 65.80516779 -28.37217565 61.88297851 -26.56640625 57.9609375 C-26.1914502 57.14740311 -25.81649414 56.33386871 -25.43017578 55.49568176 C-20.63877994 45.07652935 -16.0195746 34.58061992 -11.40600586 24.08178711 C-7.81436834 15.93204825 -4.05663151 7.93227484 0 0 Z " fill="#F9F9F9" transform="translate(844,454)"/>
<path d="M0 0 C6.30586208 3.58746961 9.69421936 8.20365088 12.5625 14.875 C13.78570615 24.04904615 13.16047879 32.3038433 7.5625 39.875 C3.66791358 44.07836437 -0.3346623 46.65879915 -6.046875 47.24609375 C-19.44561501 47.64326088 -19.44561501 47.64326088 -24.8984375 43.35546875 C-31.57829152 36.92992389 -34.50041977 31.21412378 -34.9375 22 C-34.73089311 14.88553654 -32.53066658 9.27114189 -27.72265625 3.9921875 C-19.82522063 -3.16216337 -9.73869122 -4.53403139 0 0 Z " fill="#030303" transform="translate(666.4375,475.125)"/>
<path d="M0 0 C25.41544885 0 25.41544885 0 32.14453125 5.87109375 C38.13525194 12.32545474 39.5271467 17.91029764 39.37890625 26.63671875 C38.66000477 33.01789578 35.94437829 38.51849027 31.25 42.9375 C20.71094665 49.6257454 12.89069344 48 0 48 C0 32.16 0 16.32 0 0 Z " fill="#040404" transform="translate(535,474)"/>
<path d="M0 0 C5.506875 -0.12375 5.506875 -0.12375 11.125 -0.25 C12.2711377 -0.28641602 13.41727539 -0.32283203 14.59814453 -0.36035156 C20.72617886 -0.42697231 24.39781897 -0.19477484 29 4 C31.07324138 7.10986207 31.27392186 7.89108387 31.25 11.4375 C31.25515625 12.19933594 31.2603125 12.96117187 31.265625 13.74609375 C30.95839926 16.35299453 30.48179999 17.82639579 29 20 C25.3030588 22.66254493 22.79007668 23.3656162 18.26171875 23.29296875 C16.66166992 23.2784668 16.66166992 23.2784668 15.02929688 23.26367188 C13.37510742 23.2259668 13.37510742 23.2259668 11.6875 23.1875 C10.56537109 23.17396484 9.44324219 23.16042969 8.28710938 23.14648438 C5.52453317 23.11121744 2.7622047 23.05741303 0 23 C0 15.41 0 7.82 0 0 Z " fill="#020202" transform="translate(742,474)"/>
</svg>
